<?xml version="1.0" standalone="no"?>
<!DOCTYPE svg PUBLIC "-//W3C//DTD SVG 20010904//EN"
 "http://www.w3.org/TR/2001/REC-SVG-20010904/DTD/svg10.dtd">
<svg version="1.0" xmlns="http://www.w3.org/2000/svg"
 width="888.000000pt" height="888.000000pt" viewBox="0 0 888.000000 888.000000"
 preserveAspectRatio="xMidYMid meet">
<metadata>
Created by potrace 1.14, written by Peter Selinger 2001-2017
</metadata>
<g transform="translate(0.000000,888.000000) scale(0.100000,-0.100000)"
fill="#000000" stroke="none">
<path d="M7176 8862 c-2 -4 -25 -61 -51 -127 -26 -66 -53 -134 -61 -152 -8
-17 -14 -34 -14 -37 0 -8 -182 -438 -225 -531 -20 -44 -44 -96 -52 -115 -49
-108 -207 -416 -255 -495 -10 -16 -21 -37 -25 -45 -45 -98 -415 -659 -510
-775 -5 -5 -34 -44 -65 -85 -31 -41 -79 -104 -107 -140 l-51 -65 0 -1939 0
-1938 33 28 c42 36 80 68 297 243 96 78 184 150 195 159 23 20 261 214 309
252 17 13 83 67 147 120 63 52 135 111 159 130 24 19 74 60 110 90 37 30 90
73 118 95 l51 40 3 2648 c2 1456 2 2647 1 2647 -1 0 -4 -3 -7 -8z"/>
<path d="M4199 8716 c-2 -2 -49 -6 -104 -10 -84 -5 -380 -44 -465 -61 -68 -13
-91 -18 -170 -37 -133 -31 -296 -77 -400 -113 -52 -18 -111 -38 -130 -45 -86
-29 -316 -129 -435 -189 -320 -159 -610 -351 -881 -581 -102 -87 -366 -345
-444 -435 -88 -100 -239 -293 -303 -385 -35 -50 -72 -105 -82 -122 -5 -9 -39
-63 -74 -120 -84 -134 -223 -408 -294 -578 -132 -313 -257 -766 -290 -1045
-10 -84 -19 -151 -23 -175 -26 -159 -26 -665 1 -935 7 -67 43 -292 60 -380 94
-471 283 -964 517 -1353 37 -63 68 -117 68 -122 0 -5 3 -10 8 -12 4 -2 29 -37
57 -78 134 -203 317 -430 494 -612 57 -60 107 -108 110 -108 3 0 20 13 36 28
17 15 86 77 155 137 69 60 127 112 130 115 3 3 54 48 113 99 59 52 106 97 105
102 -2 4 -39 45 -83 91 -183 191 -295 331 -471 588 -96 141 -246 420 -329 615
-117 275 -226 668 -251 909 -3 33 -8 69 -10 80 -23 117 -22 573 1 761 15 119
23 176 30 215 3 14 7 40 10 58 33 201 133 543 211 720 9 20 19 46 24 57 39
101 263 523 289 545 3 3 33 46 66 95 56 84 179 243 256 331 104 119 316 321
460 439 315 258 773 503 1177 629 62 20 124 38 137 40 14 3 28 7 33 10 5 3 19
7 33 10 13 3 76 16 139 30 151 33 158 34 295 51 28 3 65 8 83 10 124 18 456
24 627 12 93 -6 339 -35 365 -42 8 -2 31 -7 50 -10 19 -3 43 -8 53 -11 10 -3
30 -7 45 -9 78 -12 275 -67 432 -121 166 -57 320 -123 476 -202 65 -34 119
-60 120 -59 2 3 125 220 159 282 16 28 63 112 107 189 43 76 78 142 78 147 0
12 -296 158 -451 222 -199 83 -535 193 -649 213 -14 3 -41 9 -60 14 -65 17
-290 60 -340 65 -24 2 -159 19 -250 31 -48 6 -615 15 -621 10z"/>
<path d="M7500 7093 c-1 -175 -1 -435 0 -578 l0 -260 47 -75 c127 -206 297
-521 307 -572 2 -7 9 -26 15 -43 57 -137 120 -401 147 -615 3 -30 8 -62 9 -71
2 -8 6 -53 10 -100 3 -46 8 -106 10 -133 3 -28 7 -106 10 -175 3 -68 6 -126 8
-127 1 -2 34 25 72 58 79 68 97 83 180 153 33 27 62 52 65 55 5 5 111 95 159
135 13 11 29 25 35 30 6 6 40 35 76 65 108 92 99 75 84 160 -8 41 -16 86 -18
100 -35 207 -127 570 -187 738 -33 91 -60 165 -69 187 -5 11 -23 54 -41 95
-41 99 -125 266 -184 371 -47 82 -201 319 -214 329 -4 3 -18 21 -31 40 -13 19
-27 37 -30 40 -3 3 -19 23 -35 45 -16 22 -39 51 -50 64 -74 89 -160 187 -221
251 -39 41 -86 92 -105 113 -19 20 -37 37 -41 37 -5 0 -8 -143 -8 -317z"/>
<path d="M5434 5922 c-10 -9 -64 -57 -119 -106 -55 -49 -107 -97 -116 -105 -9
-9 -34 -30 -55 -48 -22 -17 -50 -41 -64 -53 -14 -12 -41 -34 -60 -49 -19 -14
-37 -28 -40 -31 -15 -16 -200 -158 -295 -227 -196 -142 -394 -266 -616 -386
l-26 -14 0 -771 0 -771 22 17 c80 61 152 118 161 127 7 5 25 20 40 32 44 34
155 122 194 153 150 120 352 280 382 302 20 15 42 33 50 40 19 18 96 78 100
78 2 0 3 -507 2 -1127 0 -621 1 -1133 4 -1139 3 -10 51 23 361 252 l96 72 0
1886 c0 1037 0 1886 0 1886 -1 0 -10 -8 -21 -18z"/>
<path d="M3665 4719 c-206 -115 -503 -250 -675 -305 -144 -47 -312 -93 -400
-109 -14 -3 -56 -12 -95 -20 -38 -8 -83 -17 -99 -19 -16 -3 -31 -8 -35 -11
-11 -11 -7 -2245 4 -2245 6 0 30 19 55 43 44 41 144 128 250 217 29 25 58 50
64 55 6 6 47 40 91 75 44 36 89 73 100 84 11 10 36 30 55 45 20 14 89 69 155
122 66 52 167 131 225 175 58 43 107 82 110 85 3 3 12 10 21 15 9 5 32 21 50
36 19 15 70 54 114 87 l80 60 0 825 c0 454 0 826 0 825 0 0 -31 -18 -70 -40z"/>
<path d="M8745 4379 c-27 -22 -61 -50 -75 -62 -14 -13 -47 -41 -75 -62 -27
-22 -55 -44 -61 -50 -11 -10 -31 -27 -199 -164 -259 -213 -320 -265 -321 -276
-1 -6 -5 -37 -9 -70 -19 -172 -83 -435 -144 -587 -85 -214 -306 -648 -405
-793 -75 -111 -208 -285 -263 -345 l-23 -25 -1 35 c0 19 -1 277 -1 573 0 404
-3 536 -12 529 -18 -13 -170 -136 -182 -147 -6 -5 -75 -62 -154 -125 -78 -63
-209 -169 -290 -235 -80 -66 -164 -134 -186 -152 -21 -17 -95 -77 -164 -133
-69 -55 -165 -133 -214 -173 -49 -40 -117 -95 -150 -123 l-61 -51 0 -491 1
-491 -96 -35 c-123 -45 -200 -67 -201 -58 -1 4 -2 185 -3 402 0 217 -5 394 -9
393 -7 -1 -469 -376 -687 -558 -47 -39 -92 -76 -100 -82 -14 -11 -16 107 -15
1158 0 644 -2 1172 -5 1174 -3 2 -21 -9 -40 -25 -19 -15 -93 -75 -165 -131
-71 -57 -135 -108 -141 -114 -6 -5 -68 -55 -138 -110 l-126 -99 0 -1069 0
-1069 -62 7 c-35 4 -70 9 -78 10 -8 1 -35 6 -60 9 -25 4 -56 9 -70 12 l-25 5
0 914 c0 503 -2 915 -4 915 -4 0 -81 -61 -103 -83 -7 -7 -51 -44 -98 -82 -101
-83 -129 -107 -144 -120 -9 -9 -45 -38 -141 -116 -21 -18 -103 -87 -145 -123
-14 -11 -50 -41 -80 -66 -30 -25 -66 -55 -80 -66 -37 -32 -122 -103 -145 -123
-11 -9 -50 -41 -86 -71 -36 -30 -87 -73 -114 -95 -27 -22 -53 -45 -59 -50 -6
-6 -63 -53 -126 -105 -63 -52 -117 -97 -120 -100 -3 -3 -30 -25 -60 -50 -30
-25 -57 -47 -60 -50 -8 -9 -287 -240 -368 -305 l-74 -59 24 -18 c12 -10 73
-55 133 -98 61 -44 115 -84 121 -89 5 -4 21 -14 34 -21 13 -7 33 -21 44 -31
11 -11 24 -19 28 -19 5 0 35 -17 66 -38 324 -218 815 -413 1352 -536 138 -32
400 -69 580 -84 126 -9 552 -9 665 1 193 17 254 25 415 53 294 50 695 166 915
264 22 10 74 32 115 50 358 155 785 428 1099 704 57 50 344 337 391 391 112
129 255 314 335 435 28 41 52 77 56 80 15 14 167 279 223 389 65 127 177 382
201 456 8 22 29 85 48 140 72 205 160 575 182 760 4 32 8 66 10 75 4 20 17
135 21 185 6 75 17 425 13 425 -2 -1 -26 -19 -54 -41z"/>
</g>
</svg>
