<svg width="712" height="222" viewBox="0 0 712 222" fill="none" xmlns="http://www.w3.org/2000/svg">
<path d="M177.535 0C167.275 26.5558 159.975 42.0299 142.012 64.579V161.491L177.535 132.521V0Z" fill="url(#paint0_linear_5_150)"/>
<path d="M91.3851 103.072C79.0871 109.897 71.1904 113.03 56.8824 115.535V172.06C70.1738 160.332 78.1319 154.172 91.3851 144.278V103.072Z" fill="url(#paint1_linear_5_150)"/>
<path d="M99.068 138.017V99.3608C111.463 93.2996 125.902 81.5246 134.419 73.3379V167.796L122.864 176.292V119.131L99.068 138.017Z" fill="url(#paint2_linear_5_150)"/>
<path d="M177.2 144.678L141.895 173.347V206.373L145.629 208.137L177.2 182.11V144.678Z" fill="#033772"/>
<path d="M114.094 137.865L98.7394 150.119V214.241H134.364V206.57V180.141L114.094 196.771V137.865Z" fill="#033772"/>
<path d="M91.3693 220.546V156.592L41.3068 198.395C58.6224 211.816 71.2093 216.441 91.3693 220.546Z" fill="#033772"/>
<mask id="path-7-inside-1_5_150" fill="white">
<path d="M33.4518 191.569C14.3382 173.19 2.57928 148.475 0.376752 122.05C-1.82577 95.6257 5.67919 69.3044 21.4864 48.015C37.2935 26.7256 60.3189 11.928 86.2509 6.39304C112.183 0.858117 139.243 4.96543 162.365 17.9459L153.615 33.5319C134.285 22.68 111.662 19.2462 89.9819 23.8735C68.3021 28.5008 49.0524 40.8719 35.8373 58.6704C22.6221 76.4689 16.3478 98.4741 18.1892 120.566C20.0305 142.657 31.1984 164.144 47.1777 179.509L33.4518 191.569Z"/>
</mask>
<path d="M33.4518 191.569L20.2183 205.332L32.8694 217.496L46.054 205.912L33.4518 191.569ZM162.365 17.9459L179.014 27.2924L188.36 10.6438L171.712 1.29726L162.365 17.9459ZM153.615 33.5319L144.269 50.1806L160.917 59.5271L170.264 42.8785L153.615 33.5319ZM47.1777 179.509L59.7799 193.852L75.383 180.143L60.4112 165.747L47.1777 179.509ZM46.6853 177.807C30.9196 162.647 21.2203 142.26 19.4036 120.464L-18.6501 123.636C-16.0617 154.689 -2.24311 183.734 20.2183 205.332L46.6853 177.807ZM19.4036 120.464C17.5868 98.6683 23.7772 76.9573 36.8157 59.3969L6.15703 36.6332C-12.4189 61.6516 -21.2384 92.5832 -18.6501 123.636L19.4036 120.464ZM36.8157 59.3969C49.8541 41.8364 68.8464 29.6307 90.2363 25.0652L82.2655 -12.2792C51.7913 -5.77475 24.7329 11.6147 6.15703 36.6332L36.8157 59.3969ZM90.2363 25.0652C111.626 20.4998 133.947 23.8877 153.019 34.5945L171.712 1.29726C144.54 -13.9568 112.74 -18.7836 82.2655 -12.2792L90.2363 25.0652ZM145.716 8.5994L136.966 24.1854L170.264 42.8785L179.014 27.2924L145.716 8.5994ZM162.962 16.8833C139.581 3.75772 112.218 -0.395516 85.9965 5.20129L93.9673 42.5457C111.105 38.8878 128.988 41.6022 144.269 50.1806L162.962 16.8833ZM85.9965 5.20129C59.7746 10.7981 36.4918 25.7611 20.508 47.2886L51.1666 70.0522C61.613 55.9828 76.8297 46.2035 93.9673 42.5457L85.9965 5.20129ZM20.508 47.2886C4.52408 68.816 -3.06478 95.4316 -0.837636 122.151L37.216 118.98C35.7604 101.517 40.7202 84.1217 51.1666 70.0522L20.508 47.2886ZM-0.837636 122.151C1.43134 149.373 14.9987 175.055 33.9442 193.272L60.4112 165.747C47.398 153.234 38.6297 135.941 37.216 118.98L-0.837636 122.151ZM34.5756 165.166L20.8496 177.226L46.054 205.912L59.7799 193.852L34.5756 165.166Z" fill="url(#paint3_linear_5_150)" mask="url(#path-7-inside-1_5_150)"/>
<mask id="path-9-inside-2_5_150" fill="white">
<path d="M217.997 111.396C218.3 132.032 212.738 152.33 201.958 169.93C191.179 187.529 175.624 201.707 157.104 210.814C138.584 219.921 117.859 223.583 97.3389 221.374C76.8192 219.165 57.3481 211.177 41.1901 198.337L56.0731 186.628C69.5815 197.363 82.0968 201.756 99.2518 203.602C116.407 205.449 133.733 202.387 149.217 194.774C164.7 187.16 177.704 175.307 186.716 160.594C194.202 145.656 196.474 142.366 198.431 127.544L217.997 111.396Z"/>
</mask>
<path d="M217.997 111.396L237.088 111.116L236.504 71.3671L205.844 96.6709L217.997 111.396ZM41.1901 198.337L29.3849 183.331L10.4062 198.262L29.3119 213.285L41.1901 198.337ZM56.0731 186.628L67.9512 171.68L56.1323 162.289L44.2679 171.623L56.0731 186.628ZM186.716 160.594L202.997 170.566L203.421 169.874L203.785 169.148L186.716 160.594ZM198.431 127.544L186.279 112.818L180.486 117.599L179.503 125.044L198.431 127.544ZM198.906 111.677C199.156 128.698 194.568 145.441 185.677 159.957L218.24 179.902C230.907 159.22 237.443 135.367 237.088 111.116L198.906 111.677ZM185.677 159.957C176.785 174.474 163.955 186.168 148.679 193.68L165.529 227.947C187.293 217.245 205.572 200.584 218.24 179.902L185.677 159.957ZM148.679 193.68C133.403 201.192 116.308 204.213 99.3822 202.391L95.2956 240.357C119.409 242.953 143.765 238.649 165.529 227.947L148.679 193.68ZM99.3822 202.391C82.4566 200.569 66.396 193.98 53.0682 183.389L29.3119 213.285C48.3002 228.374 71.1817 237.762 95.2956 240.357L99.3822 202.391ZM52.9952 213.343L67.8782 201.634L44.2679 171.623L29.3849 183.331L52.9952 213.343ZM44.1949 201.576C60.9919 214.924 77.0895 220.42 97.2085 222.586L101.295 184.619C87.1041 183.092 78.1711 179.801 67.9512 171.68L44.1949 201.576ZM97.2085 222.586C117.958 224.819 138.914 221.116 157.642 211.907L140.792 177.64C128.552 183.659 114.856 186.079 101.295 184.619L97.2085 222.586ZM157.642 211.907C176.369 202.698 192.097 188.362 202.997 170.566L170.434 150.622C163.311 162.252 153.031 171.622 140.792 177.64L157.642 211.907ZM203.785 169.148C207.154 162.427 210.279 156.564 212.466 150.883C214.945 144.442 216.268 138.309 217.36 130.043L179.503 125.044C178.637 131.601 177.846 134.523 176.829 137.167C175.518 140.571 173.765 143.823 169.647 152.04L203.785 169.148ZM210.584 142.269L230.15 126.122L205.844 96.6709L186.279 112.818L210.584 142.269Z" fill="#033772" mask="url(#path-9-inside-2_5_150)"/>
<mask id="path-11-inside-3_5_150" fill="white">
<path d="M185.46 36.4588C204.443 55.3908 212.394 72.3317 216.658 98.9531L199.512 113.536C198.68 89.2726 195.569 81.436 185.46 65.6117L185.46 36.4588Z"/>
</mask>
<path d="M185.46 36.4588L198.942 22.94L166.367 -9.54794L166.367 36.4588L185.46 36.4588ZM216.658 98.9531L229.028 113.497L237.21 106.539L235.511 95.9334L216.658 98.9531ZM199.512 113.536L180.431 114.19L181.784 153.679L211.882 128.08L199.512 113.536ZM185.46 65.6117L166.367 65.6117L166.367 71.1897L169.37 75.8904L185.46 65.6117ZM171.977 49.9775C187.832 65.7897 194.115 78.9283 197.806 101.973L235.511 95.9334C230.674 65.7351 221.053 44.9919 198.942 22.94L171.977 49.9775ZM204.289 84.4092L187.142 98.9925L211.882 128.08L229.028 113.497L204.289 84.4092ZM218.594 112.882C218.159 100.187 217.101 90.1752 214.213 80.7923C211.285 71.2797 206.83 63.5994 201.55 55.333L169.37 75.8904C174.198 83.4482 176.354 87.5984 177.717 92.0261C179.12 96.5835 180.034 102.622 180.431 114.19L218.594 112.882ZM204.553 65.6117L204.553 36.4588L166.367 36.4588L166.367 65.6117L204.553 65.6117Z" fill="url(#paint4_linear_5_150)" mask="url(#path-11-inside-3_5_150)"/>
<path d="M264.875 98.6892V94.1802C266.195 94.0891 267.266 93.8386 268.085 93.4287C268.951 93.0188 269.475 91.9029 269.657 90.0811C264.374 89.6712 260.115 88.5781 256.881 86.8019C253.693 85.0256 251.37 82.8167 249.913 80.1751C248.456 77.4879 247.727 74.6186 247.727 71.567C247.727 68.1056 248.524 64.9174 250.118 62.0026C251.758 59.0421 254.194 56.6055 257.428 54.6926C260.707 52.7797 264.806 51.5955 269.725 51.14C269.771 50.3658 269.816 49.6598 269.862 49.0222C269.907 48.3846 269.953 47.8836 269.998 47.5192L264.875 47.7242V42.4637H283.799V46.9727C282.432 47.0182 281.339 47.2459 280.519 47.6558C279.699 48.0658 279.198 49.2499 279.016 51.2084C284.254 51.7094 288.512 52.9619 291.792 54.9658C295.117 56.9698 297.553 59.3837 299.102 62.2075C300.696 65.0313 301.493 67.9917 301.493 71.0888C301.493 74.1859 300.65 77.078 298.965 79.7652C297.325 82.4523 294.843 84.7068 291.518 86.5286C288.194 88.3504 283.981 89.5118 278.88 90.0128C278.88 90.7415 278.857 91.4247 278.811 92.0623C278.766 92.7 278.72 93.201 278.675 93.5653L283.799 93.4287V98.6892H264.875ZM269.725 85.4355V55.649C265.58 56.3322 262.552 58.0174 260.639 60.7045C258.772 63.3461 257.838 66.6937 257.838 70.7472C257.838 74.8463 258.817 78.1483 260.775 80.6533C262.734 83.1583 265.717 84.7523 269.725 85.4355ZM278.948 85.6405C283.275 85.1395 286.417 83.8187 288.376 81.6781C290.38 79.5374 291.382 76.3948 291.382 72.2502C291.382 67.8323 290.357 64.1887 288.308 61.3194C286.304 58.45 283.184 56.6055 278.948 55.7857V85.6405ZM324.476 65.2818C323.247 65.2818 322.336 65.5323 321.744 66.0333C321.197 66.5343 320.833 67.2402 320.651 68.1512C320.514 69.0621 320.446 70.1324 320.446 71.3621V84.0009C320.446 84.6385 320.423 85.5494 320.377 86.7336C320.332 87.8722 320.263 88.9653 320.172 90.0128C320.901 89.9217 321.698 89.8762 322.563 89.8762C323.474 89.8306 324.158 89.8079 324.613 89.8079V95H306.714V90.5594C307.989 90.5594 308.9 90.3089 309.446 89.8079C309.993 89.3069 310.335 88.6009 310.471 87.69C310.653 86.7336 310.745 85.6632 310.745 84.4791V71.8403C310.745 71.2027 310.767 70.2918 310.813 69.1076C310.858 67.9234 310.927 66.8303 311.018 65.8283C310.289 65.8739 309.492 65.9194 308.627 65.965C307.761 66.0105 307.078 66.0333 306.577 66.0333V60.8412H324.476V65.2818ZM334.587 66.5798L337.867 69.9957L318.259 88.8514L314.912 85.3672L334.587 66.5798ZM346.611 65.2818C345.382 65.2818 344.471 65.5323 343.879 66.0333C343.332 66.5343 342.968 67.2402 342.786 68.1512C342.649 69.0621 342.581 70.1324 342.581 71.3621V84.0009C342.581 84.6385 342.558 85.5494 342.512 86.7336C342.467 87.8722 342.398 88.9653 342.307 90.0128C343.036 89.9217 343.833 89.8762 344.698 89.8762C345.609 89.8306 346.293 89.8079 346.748 89.8079V95H328.849V90.5594C330.124 90.5594 331.035 90.3089 331.581 89.8079C332.128 89.3069 332.47 88.6009 332.606 87.69C332.788 86.7336 332.879 85.6632 332.879 84.4791V71.8403C332.879 71.2027 332.902 70.2918 332.948 69.1076C332.993 67.9234 333.062 66.8303 333.153 65.8283C332.424 65.8739 331.627 65.9194 330.762 65.965C329.896 66.0105 329.213 66.0333 328.712 66.0333V60.8412H346.611V65.2818ZM369.717 65.2818C368.441 65.2818 367.508 65.5323 366.916 66.0333C366.369 66.5343 366.005 67.2402 365.822 68.1512C365.686 69.0621 365.618 70.1324 365.618 71.3621V84.0009C365.618 84.6385 365.595 85.5494 365.549 86.7336C365.504 87.8722 365.435 88.9653 365.344 90.0128L369.785 89.8079V95H351.817V90.5594C353.093 90.5594 354.004 90.3089 354.55 89.8079C355.142 89.3069 355.506 88.6009 355.643 87.69C355.825 86.7336 355.916 85.6632 355.916 84.4791V71.8403C355.916 71.2027 355.939 70.2918 355.985 69.1076C356.03 67.9234 356.076 66.8303 356.121 65.8283L351.749 66.0333V60.8412H369.717V65.2818ZM391.442 65.2818C390.166 65.2818 389.233 65.5323 388.641 66.0333C388.094 66.5343 387.73 67.2402 387.547 68.1512C387.411 69.0621 387.343 70.1324 387.343 71.3621V84.0009C387.343 84.6385 387.32 85.5494 387.274 86.7336C387.274 87.8722 387.229 88.9653 387.138 90.0128L391.578 89.8079V95H373.542V90.5594C374.818 90.5594 375.729 90.3089 376.275 89.8079C376.867 89.3069 377.232 88.6009 377.368 87.69C377.55 86.7336 377.641 85.6632 377.641 84.4791V71.8403C377.641 71.2027 377.664 70.2918 377.71 69.1076C377.755 67.9234 377.824 66.8303 377.915 65.8283L373.474 66.0333V60.8412H391.442V65.2818ZM361.245 74.9146H379.554V80.1751L361.245 80.3117V74.9146ZM416.174 95C416.083 94.3624 416.014 93.8386 415.969 93.4287C415.969 92.9732 415.946 92.4495 415.9 91.8574C414.352 93.4059 412.712 94.499 410.982 95.1366C409.251 95.7743 407.497 96.0931 405.721 96.0931C402.806 96.0931 400.529 95.2277 398.889 93.497C397.25 91.7663 396.43 89.6029 396.43 87.0068C396.43 84.8207 396.976 82.9533 398.069 81.4048C399.208 79.8562 400.688 78.6038 402.51 77.6473C404.377 76.6453 406.427 75.8938 408.659 75.3928C410.936 74.8463 413.213 74.5275 415.49 74.4364V70.8839C415.49 69.6997 415.331 68.6294 415.012 67.6729C414.739 66.7165 414.238 65.965 413.509 65.4184C412.826 64.8719 411.847 64.6214 410.572 64.6669C409.706 64.7125 408.864 64.8947 408.044 65.2135C407.224 65.5323 406.518 65.9878 405.926 66.5798C406.29 66.9898 406.518 67.4452 406.609 67.9462C406.7 68.4016 406.746 68.8116 406.746 69.1759C406.746 70.0868 406.381 71.0433 405.653 72.0453C404.924 73.0017 403.763 73.4572 402.169 73.4116C400.802 73.3661 399.755 72.8878 399.026 71.9769C398.297 71.066 397.933 69.9957 397.933 68.766C397.933 66.9442 398.57 65.3729 399.846 64.0521C401.167 62.6857 402.92 61.6382 405.106 60.9095C407.292 60.1352 409.706 59.7481 412.348 59.7481C416.356 59.7481 419.453 60.7956 421.639 62.8907C423.871 64.9402 424.987 68.2422 424.987 72.7968C424.987 74.3453 424.987 75.6661 424.987 76.7592C424.987 77.8523 424.964 78.9453 424.918 80.0384C424.918 81.1315 424.918 82.4523 424.918 84.0009C424.918 84.6385 424.896 85.5494 424.85 86.7336C424.804 87.8722 424.736 88.9653 424.645 90.0128C425.419 89.9217 426.239 89.8762 427.104 89.8762C427.97 89.8306 428.63 89.8079 429.086 89.8079V95H416.174ZM415.422 79.2869C414.147 79.4236 412.94 79.6513 411.801 79.9701C410.663 80.2889 409.661 80.7216 408.795 81.2681C407.976 81.8147 407.315 82.4751 406.814 83.2494C406.359 84.0236 406.131 84.889 406.131 85.8454C406.176 87.1207 406.586 88.0316 407.361 88.5781C408.135 89.1247 409.023 89.398 410.025 89.398C411.073 89.398 412.052 89.1702 412.963 88.7148C413.874 88.2593 414.693 87.6672 415.422 86.9385C415.422 86.4831 415.422 86.0504 415.422 85.6405C415.422 85.185 415.422 84.7296 415.422 84.2741C415.422 83.4543 415.422 82.6345 415.422 81.8147C415.422 80.9493 415.422 80.1067 415.422 79.2869ZM451.044 65.2818C449.769 65.2818 448.835 65.5323 448.243 66.0333C447.696 66.5343 447.332 67.2402 447.15 68.1512C447.013 69.0621 446.945 70.1324 446.945 71.3621V84.0009C446.945 84.6385 446.922 85.5494 446.877 86.7336C446.831 87.8722 446.763 88.9653 446.672 90.0128L451.112 89.8079V95H433.145V90.5594C434.42 90.5594 435.331 90.3089 435.877 89.8079C436.47 89.3069 436.834 88.6009 436.971 87.69C437.153 86.7336 437.244 85.6632 437.244 84.4791V71.8403C437.244 71.2027 437.267 70.2918 437.312 69.1076C437.358 67.9234 437.403 66.8303 437.449 65.8283L433.076 66.0333V60.8412H451.044V65.2818ZM472.769 65.2818C471.494 65.2818 470.56 65.5323 469.968 66.0333C469.421 66.5343 469.057 67.2402 468.875 68.1512C468.738 69.0621 468.67 70.1324 468.67 71.3621V84.0009C468.67 84.6385 468.647 85.5494 468.602 86.7336C468.602 87.8722 468.556 88.9653 468.465 90.0128L472.906 89.8079V95H454.87V90.5594C456.145 90.5594 457.056 90.3089 457.602 89.8079C458.195 89.3069 458.559 88.6009 458.696 87.69C458.878 86.7336 458.969 85.6632 458.969 84.4791V71.8403C458.969 71.2027 458.992 70.2918 459.037 69.1076C459.083 67.9234 459.151 66.8303 459.242 65.8283L454.801 66.0333V60.8412H472.769V65.2818ZM442.573 74.9146H460.882V80.1751L442.573 80.3117V74.9146ZM494.632 96.0931C491.58 96.0931 488.779 95.4099 486.229 94.0436C483.678 92.6772 481.629 90.696 480.08 88.0999C478.577 85.5038 477.826 82.3612 477.826 78.6721C477.826 76.076 478.258 73.6393 479.124 71.3621C479.989 69.0848 481.196 67.0808 482.744 65.3501C484.339 63.6194 486.206 62.2531 488.346 61.2511C490.533 60.2491 492.947 59.7481 495.588 59.7481C498.503 59.7481 500.917 60.2035 502.83 61.1144C504.788 61.9798 506.246 63.1412 507.202 64.5986C508.204 66.0105 508.705 67.5135 508.705 69.1076C508.705 70.4284 508.295 71.6126 507.475 72.6601C506.701 73.6621 505.585 74.1859 504.128 74.2314C502.397 74.277 501.19 73.7987 500.507 72.7968C499.824 71.7492 499.482 70.7472 499.482 69.7908C499.482 69.3809 499.551 68.9026 499.687 68.3561C499.824 67.764 500.029 67.2402 500.302 66.7848C499.983 66.1016 499.505 65.6006 498.867 65.2818C498.23 64.963 497.569 64.758 496.886 64.6669C496.249 64.5303 495.725 64.4848 495.315 64.5303C493.129 64.6669 491.33 65.76 489.918 67.8096C488.506 69.8591 487.8 72.8195 487.8 76.6909C487.8 78.9681 488.073 81.1087 488.62 83.1127C489.212 85.0712 490.168 86.688 491.489 87.9633C492.81 89.2385 494.586 89.9217 496.818 90.0128C498.731 90.0584 500.598 89.6029 502.42 88.6465C504.242 87.69 505.79 86.392 507.066 84.7523L510.208 87.8266C508.569 90.1039 506.861 91.8346 505.084 93.0188C503.308 94.203 501.532 95 499.756 95.4099C498.025 95.8654 496.317 96.0931 494.632 96.0931ZM530.606 96.0931C527.327 96.0931 524.367 95.3871 521.725 93.9752C519.083 92.5633 516.988 90.5594 515.44 87.9633C513.937 85.3217 513.185 82.2246 513.185 78.6721C513.185 74.8918 513.96 71.5898 515.508 68.766C517.102 65.8967 519.197 63.6877 521.793 62.1392C524.435 60.5451 527.304 59.7481 530.401 59.7481C533.681 59.7481 536.618 60.454 539.214 61.8659C541.81 63.2778 543.86 65.3046 545.363 67.9462C546.866 70.5423 547.617 73.6621 547.617 77.3057C547.617 81.1315 546.889 84.4563 545.431 87.2801C543.974 90.1039 541.97 92.2901 539.419 93.8386C536.869 95.3416 533.931 96.0931 530.606 96.0931ZM530.88 91.2425C532.701 91.197 534.068 90.5594 534.979 89.3296C535.935 88.0999 536.595 86.5514 536.96 84.684C537.324 82.8167 537.506 80.9266 537.506 79.0137C537.506 77.3285 537.37 75.6205 537.096 73.8898C536.869 72.1591 536.482 70.5878 535.935 69.1759C535.389 67.764 534.637 66.6254 533.681 65.76C532.77 64.8947 531.631 64.4848 530.265 64.5303C528.488 64.5759 527.077 65.2135 526.029 66.4432C525.027 67.6729 524.298 69.2215 523.843 71.0888C523.433 72.9106 523.228 74.8235 523.228 76.8275C523.228 79.1503 523.478 81.4276 523.979 83.6593C524.48 85.891 525.278 87.7356 526.371 89.193C527.509 90.6049 529.012 91.2881 530.88 91.2425ZM552.632 95V90.5594C553.862 90.5138 554.841 90.3089 555.57 89.9445C556.344 89.5346 556.731 88.3504 556.731 86.392V69.5175C556.731 68.6521 556.731 67.8323 556.731 67.0581C556.777 66.2383 556.822 65.6006 556.868 65.1452C556.321 65.1907 555.57 65.2363 554.614 65.2818C553.657 65.2818 552.997 65.2818 552.632 65.2818L552.701 60.8412C554.978 60.8412 557.255 60.8412 559.532 60.8412C561.81 60.7956 564.087 60.7728 566.364 60.7728C568.641 60.7728 570.919 60.7728 573.196 60.7728C577.113 60.7728 580.028 61.456 581.941 62.8224C583.899 64.1432 584.878 66.1699 584.878 68.9026C584.878 70.7244 584.4 72.3185 583.444 73.6849C582.533 75.0512 580.961 76.1215 578.73 76.8958C581.69 77.4879 583.831 78.5354 585.152 80.0384C586.472 81.5414 587.133 83.3177 587.133 85.3672C587.133 87.4623 586.563 89.2385 585.425 90.696C584.332 92.1079 582.806 93.1782 580.848 93.9069C578.889 94.6356 576.657 95 574.152 95H552.632ZM565.954 90.3544C566.637 90.3544 567.389 90.3544 568.209 90.3544C569.029 90.3544 569.803 90.3544 570.532 90.3544C571.306 90.3089 571.921 90.2861 572.376 90.2861C574.244 90.195 575.587 89.694 576.407 88.7831C577.272 87.8266 577.705 86.6197 577.705 85.1623C577.705 83.1127 577.09 81.7236 575.86 80.9949C574.631 80.2206 573.287 79.8335 571.83 79.8335C570.828 79.8335 569.848 79.8335 568.892 79.8335C567.936 79.8335 567.093 79.8562 566.364 79.9018V86.2553C566.364 87.0751 566.319 87.8266 566.228 88.5098C566.136 89.193 566.045 89.8079 565.954 90.3544ZM566.364 75.6661L569.575 75.5978C571.397 75.5067 572.763 75.2106 573.674 74.7096C574.585 74.2087 575.2 73.5255 575.519 72.6601C575.838 71.7948 575.997 70.7928 575.997 69.6541C575.997 68.4244 575.746 67.4907 575.245 66.8531C574.79 66.1699 574.084 65.6917 573.128 65.4184C572.171 65.1452 570.964 65.0313 569.507 65.0769C568.641 65.0769 567.89 65.259 567.252 65.6234C566.66 65.9422 566.364 66.8759 566.364 68.4244V75.6661ZM592.264 95V90.5594C593.493 90.5138 594.472 90.3089 595.201 89.9445C595.975 89.5346 596.363 88.3504 596.363 86.392V71.8403C596.363 71.2027 596.385 70.2918 596.431 69.1076C596.476 67.9234 596.522 66.8303 596.568 65.8283C595.839 65.8739 595.042 65.9194 594.176 65.965C593.357 66.0105 592.696 66.0333 592.195 66.0333V60.8412H610.163V65.2818C608.887 65.2818 607.954 65.5323 607.362 66.0333C606.815 66.5343 606.451 67.2402 606.269 68.1512C606.132 69.0621 606.064 70.1324 606.064 71.3621L606.132 74.3681L609.275 74.2314C613.374 74.0948 616.539 74.4591 618.771 75.3245C621.002 76.1899 622.551 77.4196 623.416 79.0137C624.282 80.5622 624.714 82.2929 624.714 84.2058C624.714 86.6652 624.168 88.692 623.075 90.2861C621.982 91.8802 620.524 93.0643 618.702 93.8386C616.881 94.6129 614.877 95 612.691 95H592.264ZM605.654 90.3544C606.61 90.3544 607.476 90.3544 608.25 90.3544C609.07 90.3544 609.889 90.3316 610.709 90.2861C612.03 90.195 613.123 89.6712 613.989 88.7148C614.899 87.7128 615.355 86.3237 615.355 84.5474C615.446 82.4979 614.968 80.9721 613.92 79.9701C612.873 78.9681 611.62 78.4671 610.163 78.4671C609.252 78.5127 608.5 78.5354 607.908 78.5354C607.362 78.4899 606.747 78.4899 606.064 78.5354V86.2553C606.064 87.0751 606.018 87.8266 605.927 88.5098C605.836 89.193 605.745 89.8079 605.654 90.3544ZM627.174 95V90.5594C628.449 90.5594 629.36 90.3089 629.907 89.8079C630.499 89.3069 630.863 88.6009 631 87.69C631.182 86.7336 631.273 85.6632 631.273 84.4791V71.8403C631.273 71.2027 631.296 70.2918 631.341 69.1076C631.387 67.9234 631.455 66.8303 631.546 65.8283C630.817 65.8739 630.02 65.9194 629.155 65.965C628.29 66.0105 627.607 66.0333 627.106 66.0333V60.8412H645.005V65.2818C643.775 65.2818 642.864 65.5323 642.272 66.0333C641.726 66.5343 641.361 67.2402 641.179 68.1512C641.042 69.0621 640.974 70.1324 640.974 71.3621V84.0009C640.974 84.6385 640.951 85.5494 640.906 86.7336C640.86 87.8722 640.792 88.9653 640.701 90.0128C641.429 89.9217 642.227 89.8762 643.092 89.8762C644.003 89.8306 644.686 89.8079 645.141 89.8079V95H627.174ZM668.533 65.2818C667.304 65.2818 666.393 65.5323 665.801 66.0333C665.254 66.5343 664.89 67.2402 664.707 68.1512C664.571 69.0621 664.503 70.1324 664.503 71.3621V84.0009C664.503 84.6385 664.48 85.5494 664.434 86.7336C664.389 87.8722 664.32 88.9653 664.229 90.0128C664.958 89.9217 665.755 89.8762 666.62 89.8762C667.531 89.8306 668.214 89.8079 668.67 89.8079V95H650.771V90.5594C652.046 90.5594 652.957 90.3089 653.503 89.8079C654.05 89.3069 654.392 88.6009 654.528 87.69C654.71 86.7336 654.801 85.6632 654.801 84.4791V71.8403C654.801 71.2027 654.824 70.2918 654.87 69.1076C654.915 67.9234 654.984 66.8303 655.075 65.8283C654.346 65.8739 653.549 65.9194 652.684 65.965C651.818 66.0105 651.135 66.0333 650.634 66.0333V60.8412H668.533V65.2818ZM678.644 66.5798L681.924 69.9957L662.316 88.8514L658.969 85.3672L678.644 66.5798ZM690.668 65.2818C689.438 65.2818 688.528 65.5323 687.936 66.0333C687.389 66.5343 687.025 67.2402 686.842 68.1512C686.706 69.0621 686.637 70.1324 686.637 71.3621V84.0009C686.637 84.6385 686.615 85.5494 686.569 86.7336C686.524 87.8722 686.455 88.9653 686.364 90.0128C687.093 89.9217 687.89 89.8762 688.755 89.8762C689.666 89.8306 690.349 89.8079 690.805 89.8079V95H672.906V90.5594C674.181 90.5594 675.092 90.3089 675.638 89.8079C676.185 89.3069 676.526 88.6009 676.663 87.69C676.845 86.7336 676.936 85.6632 676.936 84.4791V71.8403C676.936 71.2027 676.959 70.2918 677.005 69.1076C677.05 67.9234 677.119 66.8303 677.21 65.8283C676.481 65.8739 675.684 65.9194 674.819 65.965C673.953 66.0105 673.27 66.0333 672.769 66.0333V60.8412H690.668V65.2818ZM670.446 55.3757C667.258 55.3757 664.639 54.7381 662.59 53.4628C660.586 52.1876 659.584 50.3886 659.584 48.0658C659.584 46.836 659.902 45.834 660.54 45.0598C661.178 44.24 662.134 43.8528 663.409 43.8984C664.503 43.8984 665.322 44.1716 665.869 44.7182C666.461 45.2192 666.871 45.7885 667.099 46.4261C667.326 47.0638 667.44 47.5648 667.44 47.9291C667.395 48.339 667.304 48.7717 667.167 49.2272C667.076 49.6371 666.894 50.0925 666.62 50.5935C667.258 51.14 667.85 51.5272 668.397 51.7549C668.989 51.9371 669.672 52.0282 670.446 52.0282C671.22 52.0282 671.904 51.9371 672.496 51.7549C673.088 51.5272 673.68 51.14 674.272 50.5935C673.999 50.0925 673.794 49.6371 673.657 49.2272C673.566 48.7717 673.498 48.339 673.452 47.9291C673.452 47.5648 673.543 47.0638 673.725 46.4261C673.953 45.7885 674.363 45.2192 674.955 44.7182C675.547 44.1716 676.367 43.8984 677.415 43.8984C678.735 43.8528 679.715 44.24 680.352 45.0598C680.99 45.834 681.309 46.836 681.309 48.0658C681.309 50.3886 680.284 52.1876 678.234 53.4628C676.23 54.7381 673.634 55.3757 670.446 55.3757ZM258.521 178.093C257.064 178.093 255.697 177.797 254.422 177.205C253.147 176.658 252.122 175.884 251.348 174.882C250.573 173.835 250.186 172.65 250.186 171.33C250.186 169.918 250.596 168.62 251.416 167.436C252.236 166.251 253.557 165.659 255.378 165.659C256.927 165.659 258.088 166.092 258.863 166.957C259.682 167.777 260.092 168.756 260.092 169.895C260.092 170.396 260.001 170.897 259.819 171.398C259.682 171.899 259.432 172.4 259.068 172.901C259.159 173.038 259.273 173.151 259.409 173.243C259.591 173.334 259.796 173.379 260.024 173.379C261.208 173.379 262.461 172.491 263.781 170.715C264.191 170.123 264.579 169.508 264.943 168.87C265.307 168.233 265.694 167.458 266.104 166.547C266.514 165.591 266.992 164.43 267.539 163.063C268.085 161.651 268.723 159.943 269.452 157.939C270.226 155.89 271.137 153.43 272.185 150.561C273.232 147.692 274.462 144.321 275.874 140.45C276.375 139.175 276.853 137.991 277.308 136.898C277.764 135.804 278.288 134.894 278.88 134.165L273.619 134.438V129.178H288.444V133.687C287.397 133.687 286.486 133.869 285.711 134.233C284.937 134.552 284.231 135.19 283.594 136.146C282.956 137.057 282.296 138.401 281.612 140.177L271.638 166.479C270.363 169.804 268.996 172.309 267.539 173.994C266.081 175.634 264.579 176.727 263.03 177.273C261.527 177.82 260.024 178.093 258.521 178.093ZM267.607 166.274L251.416 140.928C250.778 139.881 250.186 138.697 249.64 137.376C249.093 136.009 248.82 134.962 248.82 134.233L245.472 134.438V129.178H265.626V133.687C264.305 133.595 263.212 133.732 262.347 134.096C261.481 134.461 260.958 135.053 260.775 135.873C260.593 136.647 260.867 137.672 261.595 138.947L267.266 148.785C267.949 149.923 268.746 151.199 269.657 152.611C270.568 154.022 271.228 155.116 271.638 155.89L267.607 166.274ZM311.139 147.282C309.864 147.282 308.931 147.532 308.338 148.033C307.792 148.534 307.428 149.24 307.245 150.151C307.109 151.062 307.04 152.132 307.04 153.362V166.001C307.04 166.638 307.018 167.549 306.972 168.734C306.927 169.872 306.858 170.965 306.767 172.013L311.208 171.808V177H293.24V172.559C294.516 172.559 295.426 172.309 295.973 171.808C296.565 171.307 296.929 170.601 297.066 169.69C297.248 168.734 297.339 167.663 297.339 166.479V153.84C297.339 153.203 297.362 152.292 297.408 151.108C297.453 149.923 297.499 148.83 297.544 147.828L293.172 148.033V142.841H311.139V147.282ZM332.865 147.282C331.589 147.282 330.656 147.532 330.063 148.033C329.517 148.534 329.153 149.24 328.97 150.151C328.834 151.062 328.765 152.132 328.765 153.362V166.001C328.765 166.638 328.743 167.549 328.697 168.734C328.697 169.872 328.652 170.965 328.561 172.013L333.001 171.808V177H314.965V172.559C316.241 172.559 317.151 172.309 317.698 171.808C318.29 171.307 318.654 170.601 318.791 169.69C318.973 168.734 319.064 167.663 319.064 166.479V153.84C319.064 153.203 319.087 152.292 319.133 151.108C319.178 149.923 319.247 148.83 319.338 147.828L314.897 148.033V142.841H332.865V147.282ZM302.668 156.915H320.977V162.175L302.668 162.312V156.915ZM356.367 147.282C355.137 147.282 354.226 147.532 353.634 148.033C353.088 148.534 352.723 149.24 352.541 150.151C352.404 151.062 352.336 152.132 352.336 153.362V166.001C352.336 166.638 352.313 167.549 352.268 168.734C352.222 169.872 352.154 170.965 352.063 172.013C352.792 171.922 353.589 171.876 354.454 171.876C355.365 171.831 356.048 171.808 356.504 171.808V177H338.604V172.559C339.88 172.559 340.79 172.309 341.337 171.808C341.884 171.307 342.225 170.601 342.362 169.69C342.544 168.734 342.635 167.663 342.635 166.479V153.84C342.635 153.203 342.658 152.292 342.703 151.108C342.749 149.923 342.817 148.83 342.908 147.828C342.18 147.874 341.383 147.919 340.517 147.965C339.652 148.011 338.969 148.033 338.468 148.033V142.841H356.367V147.282ZM366.478 148.58L369.757 151.996L350.15 170.851L346.802 167.367L366.478 148.58ZM378.502 147.282C377.272 147.282 376.361 147.532 375.769 148.033C375.223 148.534 374.858 149.24 374.676 150.151C374.539 151.062 374.471 152.132 374.471 153.362V166.001C374.471 166.638 374.448 167.549 374.403 168.734C374.357 169.872 374.289 170.965 374.198 172.013C374.927 171.922 375.724 171.876 376.589 171.876C377.5 171.831 378.183 171.808 378.638 171.808V177H360.739V172.559C362.014 172.559 362.925 172.309 363.472 171.808C364.018 171.307 364.36 170.601 364.497 169.69C364.679 168.734 364.77 167.663 364.77 166.479V153.84C364.77 153.203 364.793 152.292 364.838 151.108C364.884 149.923 364.952 148.83 365.043 147.828C364.314 147.874 363.517 147.919 362.652 147.965C361.787 148.011 361.104 148.033 360.603 148.033V142.841H378.502V147.282ZM383.639 177V172.559C384.869 172.514 385.848 172.309 386.577 171.944C387.351 171.535 387.739 170.35 387.739 168.392V151.518C387.739 150.652 387.739 149.832 387.739 149.058C387.784 148.238 387.83 147.601 387.875 147.145C387.329 147.191 386.577 147.236 385.621 147.282C384.664 147.282 384.004 147.282 383.639 147.282L383.708 142.841C385.985 142.841 388.262 142.841 390.54 142.841C392.817 142.796 395.094 142.773 397.371 142.773C399.649 142.773 401.926 142.773 404.203 142.773C408.12 142.773 411.035 143.456 412.948 144.822C414.906 146.143 415.885 148.17 415.885 150.903C415.885 152.724 415.407 154.319 414.451 155.685C413.54 157.051 411.969 158.122 409.737 158.896C412.697 159.488 414.838 160.535 416.159 162.038C417.48 163.541 418.14 165.318 418.14 167.367C418.14 169.462 417.571 171.239 416.432 172.696C415.339 174.108 413.813 175.178 411.855 175.907C409.896 176.636 407.665 177 405.16 177H383.639ZM396.961 172.354C397.645 172.354 398.396 172.354 399.216 172.354C400.036 172.354 400.81 172.354 401.539 172.354C402.313 172.309 402.928 172.286 403.383 172.286C405.251 172.195 406.594 171.694 407.414 170.783C408.279 169.827 408.712 168.62 408.712 167.162C408.712 165.113 408.097 163.724 406.868 162.995C405.638 162.221 404.294 161.833 402.837 161.833C401.835 161.833 400.856 161.833 399.899 161.833C398.943 161.833 398.1 161.856 397.371 161.902V168.255C397.371 169.075 397.326 169.827 397.235 170.51C397.144 171.193 397.053 171.808 396.961 172.354ZM397.371 157.666L400.582 157.598C402.404 157.507 403.77 157.211 404.681 156.71C405.592 156.209 406.207 155.525 406.526 154.66C406.845 153.795 407.004 152.793 407.004 151.654C407.004 150.424 406.754 149.491 406.253 148.853C405.797 148.17 405.091 147.692 404.135 147.418C403.178 147.145 401.971 147.031 400.514 147.077C399.649 147.077 398.897 147.259 398.259 147.623C397.667 147.942 397.371 148.876 397.371 150.424V157.666ZM439.325 178.093C436.001 178.093 433.063 177.364 430.512 175.907C427.962 174.404 425.981 172.309 424.569 169.622C423.157 166.889 422.451 163.678 422.451 159.989C422.451 156.801 423.157 153.818 424.569 151.039C425.981 148.261 427.962 146.029 430.512 144.344C433.108 142.613 436.114 141.748 439.53 141.748C441.443 141.748 443.311 142.021 445.132 142.568C446.954 143.069 448.594 143.957 450.051 145.232C451.554 146.508 452.738 148.238 453.604 150.424C454.515 152.611 454.947 155.343 454.902 158.623L432.494 159.032C432.494 161.492 432.79 163.701 433.382 165.659C434.019 167.618 435.044 169.166 436.456 170.305C437.868 171.443 439.758 172.013 442.126 172.013C443.037 172.013 444.062 171.853 445.201 171.535C446.385 171.216 447.569 170.692 448.753 169.963C449.983 169.189 451.122 168.164 452.169 166.889L455.243 169.758C453.604 172.081 451.85 173.857 449.983 175.087C448.116 176.271 446.248 177.068 444.381 177.478C442.559 177.888 440.874 178.093 439.325 178.093ZM432.903 154.25H445.474C445.428 152.337 445.155 150.834 444.654 149.741C444.199 148.603 443.561 147.783 442.741 147.282C441.921 146.781 440.965 146.53 439.872 146.53C437.868 146.53 436.297 147.259 435.158 148.716C434.019 150.128 433.268 151.973 432.903 154.25ZM459.212 194.421V189.98C460.487 189.98 461.398 189.73 461.944 189.229C462.536 188.728 462.901 187.999 463.037 187.043C463.22 186.132 463.311 185.084 463.311 183.9V155.002C463.311 154.182 463.333 153.271 463.379 152.269C463.425 151.221 463.493 150.197 463.584 149.195C462.855 149.24 461.99 149.286 460.988 149.331C459.986 149.331 459.234 149.354 458.733 149.4V144.208C460.874 144.208 462.65 144.094 464.062 143.866C465.52 143.638 466.658 143.365 467.478 143.046C468.343 142.727 468.936 142.431 469.254 142.158H472.602C472.693 142.613 472.761 143.183 472.807 143.866C472.852 144.504 472.898 145.027 472.944 145.437C474.538 144.071 476.109 143.114 477.657 142.568C479.252 142.021 480.755 141.748 482.166 141.748C484.899 141.748 487.29 142.454 489.34 143.866C491.435 145.278 493.052 147.282 494.19 149.878C495.374 152.474 495.967 155.525 495.967 159.032C495.967 162.676 495.261 165.955 493.849 168.87C492.437 171.74 490.456 173.994 487.905 175.634C485.4 177.273 482.44 178.093 479.024 178.093C477.794 178.093 476.678 177.956 475.676 177.683C474.72 177.455 473.809 177.182 472.944 176.863V183.422C472.944 184.059 472.921 184.948 472.875 186.086C472.875 187.27 472.83 188.386 472.739 189.434C473.467 189.343 474.264 189.274 475.13 189.229C475.995 189.229 476.655 189.229 477.111 189.229V194.421H459.212ZM477.931 172.969C480.026 172.924 481.643 172.309 482.781 171.125C483.965 169.895 484.785 168.301 485.241 166.342C485.696 164.384 485.924 162.289 485.924 160.057C485.924 157.962 485.673 155.981 485.172 154.114C484.671 152.246 483.874 150.743 482.781 149.605C481.688 148.42 480.254 147.851 478.477 147.897C477.339 147.942 476.291 148.238 475.335 148.785C474.378 149.286 473.581 149.992 472.944 150.903C472.944 152.315 472.944 153.726 472.944 155.138C472.944 156.505 472.944 157.871 472.944 159.237C472.944 160.604 472.944 161.993 472.944 163.405C472.944 164.771 472.944 166.16 472.944 167.572C472.944 168.939 472.944 170.328 472.944 171.74C473.445 172.058 474.15 172.354 475.061 172.628C475.972 172.901 476.929 173.015 477.931 172.969ZM517.048 178.093C513.997 178.093 511.196 177.41 508.645 176.044C506.095 174.677 504.045 172.696 502.497 170.1C500.994 167.504 500.242 164.361 500.242 160.672C500.242 158.076 500.675 155.639 501.54 153.362C502.406 151.085 503.613 149.081 505.161 147.35C506.755 145.619 508.623 144.253 510.763 143.251C512.949 142.249 515.363 141.748 518.005 141.748C520.92 141.748 523.334 142.204 525.247 143.114C527.205 143.98 528.662 145.141 529.619 146.599C530.621 148.011 531.122 149.514 531.122 151.108C531.122 152.428 530.712 153.613 529.892 154.66C529.118 155.662 528.002 156.186 526.545 156.231C524.814 156.277 523.607 155.799 522.924 154.797C522.241 153.749 521.899 152.747 521.899 151.791C521.899 151.381 521.967 150.903 522.104 150.356C522.241 149.764 522.446 149.24 522.719 148.785C522.4 148.102 521.922 147.601 521.284 147.282C520.647 146.963 519.986 146.758 519.303 146.667C518.665 146.53 518.142 146.485 517.732 146.53C515.545 146.667 513.746 147.76 512.335 149.81C510.923 151.859 510.217 154.82 510.217 158.691C510.217 160.968 510.49 163.109 511.036 165.113C511.629 167.071 512.585 168.688 513.906 169.963C515.227 171.239 517.003 171.922 519.235 172.013C521.148 172.058 523.015 171.603 524.837 170.646C526.658 169.69 528.207 168.392 529.482 166.752L532.625 169.827C530.985 172.104 529.277 173.835 527.501 175.019C525.725 176.203 523.949 177 522.172 177.41C520.442 177.865 518.734 178.093 517.048 178.093ZM554.048 147.282C552.818 147.282 551.907 147.532 551.315 148.033C550.769 148.534 550.404 149.24 550.222 150.151C550.085 151.062 550.017 152.132 550.017 153.362V166.001C550.017 166.638 549.994 167.549 549.949 168.734C549.903 169.872 549.835 170.965 549.744 172.013C550.473 171.922 551.27 171.876 552.135 171.876C553.046 171.831 553.729 171.808 554.184 171.808V177H536.285V172.559C537.56 172.559 538.471 172.309 539.018 171.808C539.564 171.307 539.906 170.601 540.043 169.69C540.225 168.734 540.316 167.663 540.316 166.479V153.84C540.316 153.203 540.339 152.292 540.384 151.108C540.43 149.923 540.498 148.83 540.589 147.828C539.861 147.874 539.063 147.919 538.198 147.965C537.333 148.011 536.65 148.033 536.149 148.033V142.841H554.048V147.282ZM564.159 148.58L567.438 151.996L547.831 170.851L544.483 167.367L564.159 148.58ZM576.183 147.282C574.953 147.282 574.042 147.532 573.45 148.033C572.903 148.534 572.539 149.24 572.357 150.151C572.22 151.062 572.152 152.132 572.152 153.362V166.001C572.152 166.638 572.129 167.549 572.084 168.734C572.038 169.872 571.97 170.965 571.879 172.013C572.607 171.922 573.404 171.876 574.27 171.876C575.181 171.831 575.864 171.808 576.319 171.808V177H558.42V172.559C559.695 172.559 560.606 172.309 561.153 171.808C561.699 171.307 562.041 170.601 562.178 169.69C562.36 168.734 562.451 167.663 562.451 166.479V153.84C562.451 153.203 562.474 152.292 562.519 151.108C562.565 149.923 562.633 148.83 562.724 147.828C561.995 147.874 561.198 147.919 560.333 147.965C559.468 148.011 558.785 148.033 558.284 148.033V142.841H576.183V147.282ZM587.401 177V172.559C588.676 172.559 589.587 172.309 590.133 171.808C590.726 171.307 591.09 170.601 591.227 169.69C591.409 168.734 591.5 167.663 591.5 166.479V153.84C591.5 153.203 591.523 152.36 591.568 151.313C591.614 150.219 591.659 149.172 591.705 148.17H589.997C587.947 148.17 586.422 148.694 585.42 149.741C584.418 150.743 583.917 152.588 583.917 155.275H579.476L579.749 142.841H612.883L613.156 155.275H608.716C608.716 152.588 608.215 150.743 607.213 149.741C606.211 148.694 604.685 148.17 602.636 148.17H601.133V166.001C601.133 166.638 601.11 167.549 601.064 168.734C601.019 169.872 600.95 170.965 600.859 172.013L605.3 171.808V177H587.401ZM633.203 178.093C629.879 178.093 626.941 177.364 624.39 175.907C621.84 174.404 619.859 172.309 618.447 169.622C617.035 166.889 616.329 163.678 616.329 159.989C616.329 156.801 617.035 153.818 618.447 151.039C619.859 148.261 621.84 146.029 624.39 144.344C626.987 142.613 629.993 141.748 633.408 141.748C635.321 141.748 637.189 142.021 639.01 142.568C640.832 143.069 642.472 143.957 643.929 145.232C645.432 146.508 646.617 148.238 647.482 150.424C648.393 152.611 648.825 155.343 648.78 158.623L626.372 159.032C626.372 161.492 626.668 163.701 627.26 165.659C627.897 167.618 628.922 169.166 630.334 170.305C631.746 171.443 633.636 172.013 636.004 172.013C636.915 172.013 637.94 171.853 639.079 171.535C640.263 171.216 641.447 170.692 642.631 169.963C643.861 169.189 645 168.164 646.047 166.889L649.121 169.758C647.482 172.081 645.728 173.857 643.861 175.087C641.994 176.271 640.126 177.068 638.259 177.478C636.437 177.888 634.752 178.093 633.203 178.093ZM626.782 154.25H639.352C639.307 152.337 639.033 150.834 638.532 149.741C638.077 148.603 637.439 147.783 636.619 147.282C635.8 146.781 634.843 146.53 633.75 146.53C631.746 146.53 630.175 147.259 629.036 148.716C627.897 150.128 627.146 151.973 626.782 154.25ZM659.922 177V172.559C661.197 172.559 662.108 172.309 662.654 171.808C663.246 171.307 663.611 170.601 663.747 169.69C663.93 168.734 664.021 167.663 664.021 166.479V153.84C664.021 153.203 664.043 152.36 664.089 151.313C664.134 150.219 664.18 149.172 664.226 148.17H662.518C660.468 148.17 658.942 148.694 657.94 149.741C656.938 150.743 656.437 152.588 656.437 155.275H651.997L652.27 142.841H685.404L685.677 155.275H681.237C681.237 152.588 680.736 150.743 679.734 149.741C678.732 148.694 677.206 148.17 675.156 148.17H673.653V166.001C673.653 166.638 673.631 167.549 673.585 168.734C673.54 169.872 673.471 170.965 673.38 172.013L677.821 171.808V177H659.922Z" fill="#033772"/>
<defs>
<linearGradient id="paint0_linear_5_150" x1="159.773" y1="0" x2="159.773" y2="161.491" gradientUnits="userSpaceOnUse">
<stop stop-color="#FF0101"/>
<stop offset="1" stop-color="#6C0202"/>
</linearGradient>
<linearGradient id="paint1_linear_5_150" x1="74.1338" y1="103.072" x2="74.1338" y2="172.06" gradientUnits="userSpaceOnUse">
<stop stop-color="#FF0101"/>
<stop offset="1" stop-color="#6C0202"/>
</linearGradient>
<linearGradient id="paint2_linear_5_150" x1="116.743" y1="73.3379" x2="116.743" y2="176.292" gradientUnits="userSpaceOnUse">
<stop stop-color="#FF0101"/>
<stop offset="1" stop-color="#6C0202"/>
</linearGradient>
<linearGradient id="paint3_linear_5_150" x1="27.1549" y1="51.4557" x2="167.057" y2="58.6532" gradientUnits="userSpaceOnUse">
<stop stop-color="#033772"/>
<stop offset="1" stop-color="#0963CA"/>
</linearGradient>
<linearGradient id="paint4_linear_5_150" x1="185.46" y1="47.4071" x2="208.892" y2="105.437" gradientUnits="userSpaceOnUse">
<stop stop-color="#0963CA"/>
<stop offset="1" stop-color="#004089"/>
</linearGradient>
</defs>
</svg>
